<?xml version="1.0" encoding="UTF-8" standalone="no"?>
<!-- Created with Inkscape (http://www.inkscape.org/) -->

<svg
   width="31.195423mm"
   height="34.661049mm"
   viewBox="0 0 31.195423 34.661049"
   version="1.1"
   id="svg1"
   inkscape:export-filename="icon.svg"
   inkscape:export-xdpi="96"
   inkscape:export-ydpi="96"
   xmlns:inkscape="http://www.inkscape.org/namespaces/inkscape"
   xmlns:sodipodi="http://sodipodi.sourceforge.net/DTD/sodipodi-0.dtd"
   xmlns="http://www.w3.org/2000/svg"
   xmlns:svg="http://www.w3.org/2000/svg">
  <sodipodi:namedview
     id="namedview1"
     pagecolor="#ffffff"
     bordercolor="#000000"
     borderopacity="0.25"
     inkscape:showpageshadow="2"
     inkscape:pageopacity="0.0"
     inkscape:pagecheckerboard="true"
     inkscape:deskcolor="#d1d1d1"
     inkscape:document-units="mm" />
  <defs
     id="defs1">
    <clipPath
       clipPathUnits="userSpaceOnUse"
       id="clipPath476">
      <path
         d="M 0,792 H 612 V 0 H 0 Z"
         transform="translate(-312.78161,-103.8631)"
         id="path476" />
    </clipPath>
    <clipPath
       clipPathUnits="userSpaceOnUse"
       id="clipPath836-8-1-0">
      <path
         d="M 0,792 H 612 V 0 H 0 Z"
         transform="translate(-311.36861,-207.2437)"
         id="path836-1-1-9"
         sodipodi:nodetypes="ccccc" />
    </clipPath>
    <clipPath
       clipPathUnits="userSpaceOnUse"
       id="clipPath836-8-1">
      <path
         d="M 0,792 H 612 V 0 H 0 Z"
         transform="translate(-311.36861,-207.2437)"
         id="path836-1-1"
         sodipodi:nodetypes="ccccc" />
    </clipPath>
    <clipPath
       clipPathUnits="userSpaceOnUse"
       id="clipPath836-8-1-0-7">
      <path
         d="M 0,792 H 612 V 0 H 0 Z"
         transform="translate(-311.36861,-207.2437)"
         id="path836-1-1-9-6"
         sodipodi:nodetypes="ccccc" />
    </clipPath>
    <clipPath
       clipPathUnits="userSpaceOnUse"
       id="clipPath836-8-1-5">
      <path
         d="M 0,792 H 612 V 0 H 0 Z"
         transform="translate(-311.36861,-207.2437)"
         id="path836-1-1-91"
         sodipodi:nodetypes="ccccc" />
    </clipPath>
    <clipPath
       clipPathUnits="userSpaceOnUse"
       id="clipPath852">
      <path
         d="M 0,792 H 612 V 0 H 0 Z"
         transform="translate(-296.44941,-150.48441)"
         id="path852"
         sodipodi:nodetypes="ccccc" />
    </clipPath>
    <inkscape:path-effect
       effect="fillet_chamfer"
       id="path-effect986"
       is_visible="true"
       lpeversion="1"
       nodesatellites_param="F,0,0,1,0,0,0,1 @ F,0,0,1,0,7.685971,0,1 @ F,0,1,1,0,7.685971,0,1 @ F,0,0,1,0,8,0,1 @ F,0,0,1,0,8,0,1 @ F,0,0,1,0,8,0,1 @ F,0,0,1,0,8,0,1 @ F,0,0,1,0,0,0,1"
       radius="8"
       unit="px"
       method="auto"
       mode="F"
       chamfer_steps="1"
       flexible="false"
       use_knot_distance="true"
       apply_no_radius="true"
       apply_with_radius="true"
       only_selected="false"
       hide_knots="false" />
    <clipPath
       clipPathUnits="userSpaceOnUse"
       id="clipPath852-7">
      <path
         d="M 0,792 H 612 V 0 H 0 Z"
         transform="translate(-296.44941,-150.48441)"
         id="path852-0"
         sodipodi:nodetypes="ccccc" />
    </clipPath>
    <inkscape:path-effect
       effect="fillet_chamfer"
       id="path-effect986-4"
       is_visible="true"
       lpeversion="1"
       nodesatellites_param="F,0,0,1,0,0,0,1 @ F,0,0,1,0,8,0,1 @ F,0,0,1,0,8,0,1 @ F,0,0,1,0,8,0,1 @ F,0,0,1,0,8,0,1 @ F,0,0,1,0,8,0,1 @ F,0,0,1,0,8,0,1 @ F,0,0,1,0,0,0,1"
       radius="8"
       unit="px"
       method="auto"
       mode="F"
       chamfer_steps="1"
       flexible="false"
       use_knot_distance="true"
       apply_no_radius="true"
       apply_with_radius="true"
       only_selected="false"
       hide_knots="false" />
    <clipPath
       clipPathUnits="userSpaceOnUse"
       id="clipPath908">
      <path
         d="M 0,792 H 612 V 0 H 0 Z"
         transform="translate(-305.98351,-132.9387)"
         id="path908" />
    </clipPath>
    <inkscape:path-effect
       effect="fillet_chamfer"
       id="path-effect988"
       is_visible="true"
       lpeversion="1"
       nodesatellites_param="F,0,0,1,0,0,0,1 @ F,0,0,1,0,10,0,1 @ F,0,0,1,0,10,0,1 @ F,0,0,1,0,10,0,1 @ F,0,0,1,0,6.5532056,0,1 @ F,0,0,1,0,5.0526231,0,1 @ F,0,0,1,0,10,0,1 @ F,0,0,1,0,6.0806987,0,1 @ F,0,0,1,0,10,0,1 @ F,0,0,1,0,0,0,1"
       radius="11"
       unit="px"
       method="auto"
       mode="F"
       chamfer_steps="1"
       flexible="false"
       use_knot_distance="true"
       apply_no_radius="true"
       apply_with_radius="true"
       only_selected="false"
       hide_knots="false" />
    <clipPath
       clipPathUnits="userSpaceOnUse"
       id="clipPath974">
      <path
         d="M 0,792 H 612 V 0 H 0 Z"
         transform="translate(-292.3528,-130.6335)"
         id="path974" />
    </clipPath>
    <clipPath
       clipPathUnits="userSpaceOnUse"
       id="clipPath974-0">
      <path
         d="M 0,792 H 612 V 0 H 0 Z"
         transform="translate(-292.3528,-130.6335)"
         id="path974-0" />
    </clipPath>
  </defs>
  <g
     inkscape:label="Layer 1"
     inkscape:groupmode="layer"
     id="layer1"
     transform="translate(-99.865092,-85.460973)">
    <path
       style="fill:#6f4324;fill-opacity:1;fill-rule:evenodd;stroke-width:2.78415;stroke-linecap:round"
       d="m 125.71393,92.269985 c 0,0 -4.76695,-1.989048 0.1703,-5.890629 4.93724,-3.901586 -0.1703,5.890629 -0.1703,5.890629 z"
       id="path986" />
    <path
       style="fill:#231f20;fill-opacity:0.780392;fill-rule:evenodd;stroke-width:1.4942;stroke-linecap:round"
       d="m 125.34894,90.744502 c 0,0 -1.76965,-1.784204 0.92336,-3.694471 2.69301,-1.910275 -0.92336,3.694471 -0.92336,3.694471 z"
       id="path986-2" />
    <path
       style="fill:#6f4324;fill-opacity:1;fill-rule:evenodd;stroke-width:2.78415;stroke-linecap:round"
       d="m 105.13974,92.341935 c 0,0 4.76695,-1.989048 -0.17029,-5.890628 -4.93723,-3.901585 0.17029,5.890628 0.17029,5.890628 z"
       id="path986-1" />
    <path
       style="fill:#231f20;fill-opacity:0.780392;fill-rule:evenodd;stroke-width:1.4942;stroke-linecap:round"
       d="m 105.50474,90.816452 c 0,0 1.76963,-1.784202 -0.92338,-3.69447 -2.69301,-1.910275 0.92338,3.69447 0.92338,3.69447 z"
       id="path986-2-0" />
    <path
       id="path475"
       d="m 0,0 h -31.795 c -6.6,0 -12,5.4 -12,12 v 31.795 c 0,6.6 5.4,12 12,12 H 0 c 6.6,0 12,-5.4 12,-12 V 12 C 12,5.4 6.6,0 0,0"
       style="fill:#bf935b;fill-opacity:1;fill-rule:nonzero;stroke:#231f20;stroke-width:1;stroke-linecap:butt;stroke-linejoin:miter;stroke-miterlimit:10;stroke-dasharray:none;stroke-opacity:1"
       transform="matrix(0.54926353,0,0,-0.54926353,124.19472,119.84739)"
       clip-path="url(#clipPath476)" />
    <path
       id="path835-2-0-3"
       d="M 0,0 C 0.198,-1.235 -1.1050549,0.65200705 -2.3410549,0.45400705 -3.5760549,0.25600705 -4.275,-1.953 -4.473,-0.718 -4.671,0.518 -3.83,1.679 -2.595,1.878 -1.36,2.076 -0.198,1.235 0,0"
       style="fill:#b08857;fill-opacity:1;fill-rule:nonzero;stroke:none"
       transform="matrix(-1.1328904,0,0,-1.4409193,103.6699,98.010465)"
       clip-path="url(#clipPath836-8-1-0)"
       sodipodi:nodetypes="ccccc" />
    <path
       id="path835-2-0"
       d="M 0,0 C 0.198,-1.235 -1.1050549,0.65200705 -2.3410549,0.45400705 -3.5760549,0.25600705 -4.275,-1.953 -4.473,-0.718 -4.671,0.518 -3.83,1.679 -2.595,1.878 -1.36,2.076 -0.198,1.235 0,0"
       style="fill:#231f20;fill-opacity:1;fill-rule:nonzero;stroke:none"
       transform="matrix(-1.1328904,0,0,-1.4409193,103.67415,97.433125)"
       clip-path="url(#clipPath836-8-1)"
       sodipodi:nodetypes="ccccc" />
    <path
       id="path835-2-0-3-6"
       d="M 0,0 C 0.198,-1.235 -1.1050549,0.65200705 -2.3410549,0.45400705 -3.5760549,0.25600705 -4.275,-1.953 -4.473,-0.718 -4.671,0.518 -3.83,1.679 -2.595,1.878 -1.36,2.076 -0.198,1.235 0,0"
       style="fill:#b08857;fill-opacity:1;fill-rule:nonzero;stroke:none"
       transform="matrix(1.1328904,0,0,-1.4409193,126.89254,98.084135)"
       clip-path="url(#clipPath836-8-1-0-7)"
       sodipodi:nodetypes="ccccc" />
    <path
       id="path835-2-0-0"
       d="M 0,0 C 0.198,-1.235 -1.1050549,0.65200705 -2.3410549,0.45400705 -3.5760549,0.25600705 -4.275,-1.953 -4.473,-0.718 -4.671,0.518 -3.83,1.679 -2.595,1.878 -1.36,2.076 -0.198,1.235 0,0"
       style="fill:#231f20;fill-opacity:1;fill-rule:nonzero;stroke:none"
       transform="matrix(1.1328904,0,0,-1.4409193,126.88827,97.506795)"
       clip-path="url(#clipPath836-8-1-5)"
       sodipodi:nodetypes="ccccc" />
    <path
       id="path851"
       d="m 0.5631919,-0.25876385 c 0,0 -0.49980357,-0.35649299 -1.24406435,-0.89223035 -3.44376055,-2.4789042 -8.08034345,-7.472302 -9.72514455,-11.3667648 -0.266822,-0.631767 -2.255916,-4.149567 -3.514167,-8.200055 -0.231027,-0.743717 -1.282072,-4.013768 -0.09982,-6.713186 4.2401986,-10.624867 6.6796508,-14.340769 8.38,-14.648 C 0,-42.413 0,-42.413 0,-42.413"
       style="fill:#a47343;fill-opacity:1;fill-rule:nonzero;stroke:#a47343;stroke-width:0.99975;stroke-linecap:butt;stroke-linejoin:miter;stroke-miterlimit:10;stroke-dasharray:none;stroke-opacity:1"
       transform="matrix(0.54926353,0,0,-0.54926353,115.22405,94.240025)"
       clip-path="url(#clipPath852)"
       inkscape:path-effect="#path-effect986"
       inkscape:original-d="m 0.5631919,-0.25876385 c 0,0 -6.0681919,-4.32823615 -7.4021919,-5.48623615 -1.333,-1.157 -4.041684,-7.920132 -4.041684,-7.920132 0,0 -3.326211,-6.637237 -3.326211,-8.433237 0,-1.796 -0.445105,-3.889631 0.186895,-5.332631 0.633,-1.442 4.594,-12.34 5.709,-13.019 1.114,-0.68 0.828,-1.296 2.671,-1.629 1.843,-0.334 5.64,-0.334 5.64,-0.334"
       sodipodi:nodetypes="cscscccc" />
    <path
       id="path851-6"
       d="m 0.0076107,-0.18265684 c 0,0 -0.24398227,-0.19493153 -0.64171079,-0.51355822 C -4.0820754,-3.4584433 -8.7859578,-8.7783081 -10.388955,-12.874377 c -0.1914,-0.489077 -1.850177,-4.148464 -3.249582,-8.338205 -0.474111,-1.419469 -1.178973,-4.397506 -0.381463,-6.218418 4.2401986,-10.624867 6.6796508,-14.340769 8.38,-14.648 C 0,-42.413 0,-42.413 0,-42.413"
       style="fill:#a47343;fill-opacity:1;fill-rule:nonzero;stroke:#a47343;stroke-width:0.99975;stroke-linecap:butt;stroke-linejoin:miter;stroke-miterlimit:10;stroke-dasharray:none;stroke-opacity:1"
       transform="matrix(-0.54926353,0,0,-0.54926353,115.20768,94.273105)"
       clip-path="url(#clipPath852-7)"
       inkscape:path-effect="#path-effect986-4"
       inkscape:original-d="m 0.0076107,-0.18265684 c 0,0 -5.5126107,-4.40434316 -6.8466107,-5.56234316 -1.333,-1.157 -3.891,-8.017 -3.891,-8.017 0,0 -3.563,-8.284 -3.563,-10.08 0,-1.796 -0.359,-2.146 0.273,-3.589 0.633,-1.442 4.594,-12.34 5.709,-13.019 1.114,-0.68 0.828,-1.296 2.671,-1.629 1.843,-0.334 5.64,-0.334 5.64,-0.334"
       sodipodi:nodetypes="cscscccc" />
    <path
       style="fill:#b08857;fill-opacity:1;fill-rule:evenodd;stroke:#b08857;stroke-width:0.123584;stroke-linecap:round;stroke-dasharray:none;stroke-opacity:0.38"
       d="m 114.9591,91.121705 c 0,0 0.26576,-2.051144 -1.57793,-2.680959 -1.84366,-0.629814 1.57793,2.680959 1.57793,2.680959 z"
       id="path985" />
    <path
       style="fill:#b08857;fill-opacity:1;fill-rule:evenodd;stroke:#b08857;stroke-width:0.123584;stroke-linecap:round;stroke-dasharray:none;stroke-opacity:0.38"
       d="m 114.80678,91.139366 c 0,0 1.53574,-1.385405 0.54469,-3.062793 -0.99104,-1.67739 -0.54469,3.062793 -0.54469,3.062793 z"
       id="path985-8" />
    <path
       style="fill:#b08857;fill-opacity:1;fill-rule:evenodd;stroke:#b08657;stroke-width:0.123584;stroke-linecap:round;stroke-dasharray:none;stroke-opacity:0.380392"
       d="m 114.8306,91.242822 c 0,0 2.0441,-0.31547 2.13604,-2.26158 0.092,-1.946111 -2.13604,2.26158 -2.13604,2.26158 z"
       id="path985-8-4" />
    <path
       style="fill:none;fill-opacity:1;fill-rule:evenodd;stroke:#231f20;stroke-width:0.549127;stroke-linecap:round;stroke-dasharray:none;stroke-opacity:1"
       d="m 111.25734,113.02229 c 0,0 4.23285,3.49979 8.1583,-0.0473"
       id="path988" />
    <path
       id="path907"
       d="M 0,0 C -0.39476739,0.51253809 -1.3950284,1.6646961 -2.6014164,3.0259768 -9.32,10.48 -9.32,10.48 -9.32,10.48 -9.345,10.453 -9.345,10.453 -9.345,10.453 -17.500799,1.3759155 -21.445255,-3.161682 -19.725478,-6.1537135 c 0.03163,-0.05503 1.666825,-1.9578698 4.282905,-2.3680598 0.02907,-0.00456 2.807677,-0.5110882 6.122573,-0.011227 6.0666907,0.00233 8.9105089,0.023459 10.347,2.281 C 2.053,-4.639 1.314,-1.706 0,0"
       style="fill:#6f4324;fill-opacity:1;fill-rule:nonzero;stroke:#6f4324;stroke-width:1;stroke-linecap:butt;stroke-linejoin:miter;stroke-miterlimit:10;stroke-dasharray:none;stroke-opacity:1"
       transform="matrix(0.54926353,0,0,-0.54926353,120.3189,103.92452)"
       clip-path="url(#clipPath908)"
       inkscape:path-effect="#path-effect988"
       inkscape:original-d="m 0,0 c -1.257,1.632 -8.653,9.749 -9.295,10.453 0,0 -0.009,0.045 -0.025,0.027 -0.016,0.018 -0.025,-0.027 -0.025,-0.027 C -9.986,9.749 -17.383,1.632 -18.64,0 c -1.314,-1.706 -2.053,-4.639 -1.026,-6.252 1.026,-1.614 1.241,-1.804 4.276,-2.278 2.901,-0.452 5.818,-0.041 6.07,-0.003 0.253,-0.038 3.17,-0.449 6.071,0.003 C -0.214,-8.056 0,-7.866 1.027,-6.252 2.053,-4.639 1.314,-1.706 0,0" />
    <path
       id="path973"
       d="m 0,0 c 1.044,-2.218 0.983,-4.443 -0.135,-4.969 -1.119,-0.526 -2.872,0.845 -3.916,3.063 -1.043,2.218 -0.983,4.442 0.136,4.969 C -2.797,3.589 -1.044,2.218 0,0"
       style="fill:#231f20;fill-opacity:1;fill-rule:nonzero;stroke:#231f20;stroke-width:1;stroke-linecap:butt;stroke-linejoin:miter;stroke-miterlimit:10;stroke-dasharray:none;stroke-opacity:1"
       transform="matrix(0.42646758,0,0,-0.52417873,113.24547,105.21459)"
       clip-path="url(#clipPath974)" />
    <path
       id="path973-9"
       d="m 0,0 c 1.044,-2.218 0.983,-4.443 -0.135,-4.969 -1.119,-0.526 -2.872,0.845 -3.916,3.063 -1.043,2.218 -0.983,4.442 0.136,4.969 C -2.797,3.589 -1.044,2.218 0,0"
       style="fill:#231f20;fill-opacity:1;fill-rule:nonzero;stroke:#231f20;stroke-width:1;stroke-linecap:butt;stroke-linejoin:miter;stroke-miterlimit:10;stroke-dasharray:none;stroke-opacity:1"
       transform="matrix(-0.42646758,0,0,-0.52417873,117.21429,105.21813)"
       clip-path="url(#clipPath974-0)" />
  </g>
</svg>
